<?xml version="1.0" encoding="utf-8"?>
<!-- Generator: Adobe Illustrator 23.0.2, SVG Export Plug-In . SVG Version: 6.00 Build 0)  -->
<svg version="1.1" id="Layer_1" xmlns="http://www.w3.org/2000/svg" xmlns:xlink="http://www.w3.org/1999/xlink" x="0px" y="0px"
	 viewBox="0 0 80.2 109.71" style="enable-background:new 0 0 80.2 109.71;" xml:space="preserve">
<style type="text/css">
	.st0{fill:#8395FF;}
	.st1{fill:#677EFF;}
	.st2{fill-rule:evenodd;clip-rule:evenodd;fill:#FF47B3;}
	.st3{fill:#98A7FF;}
	.st4{fill:#8093FF;}
	.st5{fill:#7387FF;}
	.st6{fill:#7186FF;}
	.st7{fill:#8B9CFF;}
	.st8{fill:#7E91FF;}
	.st9{fill:#6E83FF;}
</style>
<g>
	<path class="st0" d="M73.9,24.35c-0.57,0-1-0.43-1-0.86c0-0.57,0.43-1,1-1h5.44c0.43,0,0.86,0.43,0.86,1v85.36
		c0,0.43-0.43,0.86-0.86,0.86H0.86c-0.57,0-0.86-0.43-0.86-0.86V23.48c0-0.57,0.29-1,0.86-1l27.93,0.14c0.43,0,0.86,0.29,0.86,0.86
		c0,0.43-0.43,0.86-0.86,0.86H1.72v83.49h76.76V24.35H73.9z M51.7,24.63c-0.57,0-1-0.29-1-0.86c0-0.43,0.43-0.86,1-0.86h8.74
		c0.43,0,0.86,0.43,0.86,0.86c0,0.57-0.43,0.86-0.86,0.86H51.7z"/>
	<path class="st1" d="M40.1,4.58c0.86,0,1.72,0.29,2.29,0.86c0.57,0.72,1,1.43,1,2.44c0,0.86-0.43,1.72-1,2.29
		c-0.57,0.57-1.43,0.86-2.29,0.86s-1.72-0.29-2.29-0.86c-0.57-0.57-1-1.44-1-2.29c0-1.01,0.43-1.72,1-2.44
		C38.38,4.87,39.24,4.58,40.1,4.58L40.1,4.58z M41.1,6.73c-0.29-0.29-0.57-0.43-1-0.43s-0.72,0.14-1,0.43
		c-0.29,0.29-0.43,0.72-0.43,1.15c0,0.29,0.14,0.72,0.43,1c0.29,0.29,0.57,0.43,1,0.43s0.72-0.14,1-0.43c0.29-0.29,0.43-0.72,0.43-1
		C41.54,7.44,41.39,7.02,41.1,6.73L41.1,6.73z"/>
	<path class="st2" d="M70.18,22.77c0.29,0,0.72,0.29,0.72,0.72c0,0.43-0.43,0.72-0.72,0.72c-0.43,0-0.86-0.29-0.86-0.72
		C69.32,23.06,69.74,22.77,70.18,22.77L70.18,22.77z"/>
	<path class="st3" d="M10.17,44.68c-0.43-0.29-0.43-1,0-1.29c0.43-0.43,1-0.43,1.29,0l2.87,3.01l6.87-5.73
		c0.43-0.43,1-0.29,1.29,0.14c0.29,0.29,0.29,0.86-0.14,1.29l-7.44,6.3c-0.29,0.29-0.86,0.29-1.29,0L10.17,44.68z"/>
	<path class="st4" d="M20.34,69.61c0.29,0.29,0.29,0.86-0.14,1.29c-0.29,0.29-1,0.29-1.29-0.14l-6.59-7.16
		c-0.43-0.43-0.29-1.01,0-1.29c0.43-0.43,1-0.29,1.43,0L20.34,69.61z"/>
	<path class="st5" d="M13.75,70.75c-0.43,0.43-1,0.43-1.43,0.14c-0.29-0.43-0.43-1,0-1.29l6.59-7.3c0.29-0.29,1-0.43,1.29,0
		c0.43,0.29,0.43,0.86,0.14,1.29L13.75,70.75z"/>
	<path class="st6" d="M28.36,43.97c-0.58,0-0.86-0.43-0.86-0.86c0-0.57,0.29-1.01,0.86-1.01h41.1c0.57,0,1,0.43,1,1.01
		c0,0.43-0.43,0.86-1,0.86H28.36z"/>
	<path class="st7" d="M28.36,55.71c-0.58,0-0.86-0.43-0.86-0.86c0-0.57,0.29-1,0.86-1h41.1c0.57,0,1,0.43,1,1
		c0,0.43-0.43,0.86-1,0.86H28.36z"/>
	<path class="st6" d="M28.36,67.45c-0.58,0-0.86-0.43-0.86-0.86c0-0.57,0.29-1.01,0.86-1.01h41.1c0.57,0,1,0.43,1,1.01
		c0,0.43-0.43,0.86-1,0.86H28.36z"/>
	<path class="st8" d="M28.36,79.2c-0.58,0-0.86-0.43-0.86-0.86c0-0.57,0.29-1,0.86-1h24.2c0.43,0,0.86,0.43,0.86,1
		c0,0.43-0.43,0.86-0.86,0.86H28.36z"/>
	<path class="st0" d="M31.36,17.61V8.74c0-2.44,0.86-4.58,2.58-6.16l0,0C35.52,1,37.66,0,40.1,0c2.43,0,4.58,1,6.16,2.58
		c1.57,1.57,2.57,3.72,2.57,6.16v8.88l8.02,12.75c0.29,0.43,0.14,1-0.29,1.29c-0.14,0-0.29,0.14-0.43,0.14H24.06
		c-0.43,0-0.86-0.43-0.86-1.01c0-0.14,0-0.43,0.14-0.57L31.36,17.61z M33.22,8.74v9.16c0,0.29-0.14,0.43-0.14,0.57l-7.3,11.46h28.64
		l-7.3-11.46c0-0.14-0.14-0.29-0.14-0.57V8.74c0-1.86-0.72-3.58-2-4.87c-1.29-1.14-3.01-2-4.87-2c-1.86,0-3.58,0.86-4.87,2
		C33.94,5.15,33.22,6.88,33.22,8.74L33.22,8.74z"/>
	<path class="st5" d="M28.36,47.98c-0.58,0-0.86-0.43-0.86-1.01c0-0.43,0.29-0.86,0.86-0.86H45.4c0.57,0,1,0.43,1,0.86
		c0,0.57-0.43,1.01-1,1.01H28.36z"/>
	<path class="st9" d="M28.36,59.29c-0.58,0-0.86-0.43-0.86-0.86c0-0.57,0.29-0.86,0.86-0.86H45.4c0.57,0,1,0.29,1,0.86
		c0,0.43-0.43,0.86-1,0.86H28.36z"/>
	<path class="st5" d="M28.36,71.46c-0.58,0-0.86-0.29-0.86-0.86c0-0.43,0.29-0.86,0.86-0.86H45.4c0.57,0,1,0.43,1,0.86
		c0,0.57-0.43,0.86-1,0.86H28.36z"/>
</g>
</svg>
