<?xml version="1.0" encoding="utf-8"?>
<!-- Generator: Adobe Illustrator 23.0.2, SVG Export Plug-In . SVG Version: 6.00 Build 0)  -->
<svg version="1.1" id="Layer_1" xmlns="http://www.w3.org/2000/svg" xmlns:xlink="http://www.w3.org/1999/xlink" x="0px" y="0px"
	 viewBox="0 0 200 200" style="enable-background:new 0 0 200 200;" xml:space="preserve">
<style type="text/css">
	.st0{fill:#8395FF;}
	.st1{fill:#677EFF;}
	.st2{fill-rule:evenodd;clip-rule:evenodd;fill:#FF47B3;}
	.st3{fill:#98A7FF;}
	.st4{fill:#8093FF;}
	.st5{fill:#7387FF;}
	.st6{fill:#7186FF;}
	.st7{fill:#8B9CFF;}
	.st8{fill:#7E91FF;}
	.st9{fill:#6E83FF;}
</style>
<g>
	<path class="st0" d="M159.09,46.75c-1,0-1.75-0.75-1.75-1.51c0-1,0.75-1.75,1.75-1.75h9.51c0.75,0,1.5,0.75,1.5,1.75v149.22
		c0,0.75-0.75,1.51-1.5,1.51H31.4c-1,0-1.5-0.75-1.5-1.51V45.24c0-1,0.5-1.75,1.5-1.75l48.83,0.25c0.75,0,1.5,0.5,1.5,1.5
		c0,0.76-0.75,1.51-1.5,1.51H32.91v145.96H167.1V46.75H159.09z M120.28,47.25c-1,0-1.75-0.5-1.75-1.5c0-0.75,0.75-1.5,1.75-1.5
		h15.27c0.75,0,1.5,0.75,1.5,1.5c0,1-0.75,1.5-1.5,1.5H120.28z"/>
	<path class="st1" d="M100,12.2c1.5,0,3,0.5,4,1.5c1,1.25,1.75,2.5,1.75,4.26c0,1.5-0.75,3-1.75,4.01c-1,1-2.5,1.5-4,1.5
		c-1.5,0-3.01-0.5-4.01-1.5c-1-1-1.75-2.51-1.75-4.01c0-1.76,0.75-3.01,1.75-4.26C96.99,12.7,98.5,12.2,100,12.2L100,12.2z
		 M101.75,15.95c-0.5-0.5-1-0.75-1.75-0.75c-0.75,0-1.25,0.25-1.75,0.75c-0.51,0.5-0.76,1.25-0.76,2.01c0,0.5,0.25,1.25,0.76,1.75
		c0.5,0.5,1,0.75,1.75,0.75c0.75,0,1.25-0.25,1.75-0.75c0.5-0.5,0.75-1.25,0.75-1.75C102.51,17.2,102.26,16.46,101.75,15.95
		L101.75,15.95z"/>
	<path class="st2" d="M152.58,43.99c0.5,0,1.25,0.5,1.25,1.25c0,0.76-0.75,1.26-1.25,1.26c-0.75,0-1.5-0.5-1.5-1.26
		C151.08,44.5,151.82,43.99,152.58,43.99L152.58,43.99z"/>
	<path class="st3" d="M47.67,82.3c-0.75-0.5-0.75-1.75,0-2.25c0.75-0.75,1.75-0.75,2.25,0l5.01,5.26l12.01-10.01
		c0.75-0.75,1.75-0.5,2.25,0.25c0.5,0.5,0.5,1.5-0.25,2.25L55.94,88.81c-0.5,0.5-1.5,0.5-2.25,0L47.67,82.3z"/>
	<path class="st4" d="M65.45,125.87c0.5,0.5,0.5,1.5-0.25,2.25c-0.5,0.5-1.75,0.5-2.25-0.25l-11.52-12.52
		c-0.76-0.76-0.51-1.76,0-2.25c0.75-0.75,1.75-0.5,2.5,0L65.45,125.87z"/>
	<path class="st5" d="M53.94,127.87c-0.75,0.75-1.75,0.75-2.5,0.25c-0.51-0.75-0.76-1.75,0-2.25l11.52-12.77
		c0.5-0.5,1.75-0.75,2.25,0c0.75,0.5,0.75,1.5,0.25,2.25L53.94,127.87z"/>
	<path class="st6" d="M79.48,81.05c-1.01,0-1.51-0.75-1.51-1.5c0-1,0.5-1.76,1.51-1.76h71.85c1,0,1.75,0.76,1.75,1.76
		c0,0.75-0.75,1.5-1.75,1.5H79.48z"/>
	<path class="st7" d="M79.48,101.58c-1.01,0-1.51-0.75-1.51-1.5c0-1,0.5-1.75,1.51-1.75h71.85c1,0,1.75,0.75,1.75,1.75
		c0,0.75-0.75,1.5-1.75,1.5H79.48z"/>
	<path class="st6" d="M79.48,122.11c-1.01,0-1.51-0.75-1.51-1.5c0-1,0.5-1.76,1.51-1.76h71.85c1,0,1.75,0.75,1.75,1.76
		c0,0.75-0.75,1.5-1.75,1.5H79.48z"/>
	<path class="st8" d="M79.48,142.64c-1.01,0-1.51-0.75-1.51-1.5c0-1,0.5-1.75,1.51-1.75h42.31c0.75,0,1.5,0.75,1.5,1.75
		c0,0.75-0.75,1.5-1.5,1.5H79.48z"/>
	<path class="st0" d="M84.73,34.98V19.46c0-4.26,1.5-8.01,4.51-10.76l0,0c2.75-2.76,6.5-4.51,10.76-4.51
		c4.25,0,8.01,1.75,10.77,4.51c2.75,2.75,4.5,6.51,4.5,10.76v15.52l14.02,22.28c0.5,0.75,0.25,1.75-0.5,2.26
		c-0.25,0-0.5,0.25-0.75,0.25H71.96c-0.75,0-1.5-0.76-1.5-1.76c0-0.25,0-0.75,0.25-1L84.73,34.98z M87.98,19.46v16.02
		c0,0.5-0.25,0.75-0.25,1L74.96,56.51h50.07l-12.77-20.03c0-0.25-0.25-0.5-0.25-1V19.46c0-3.26-1.25-6.26-3.5-8.51
		c-2.26-2-5.26-3.5-8.51-3.5c-3.26,0-6.26,1.5-8.51,3.5C89.24,13.2,87.98,16.21,87.98,19.46L87.98,19.46z"/>
	<path class="st5" d="M79.48,88.06c-1.01,0-1.51-0.75-1.51-1.76c0-0.75,0.5-1.5,1.51-1.5h29.79c1,0,1.75,0.75,1.75,1.5
		c0,1-0.75,1.76-1.75,1.76H79.48z"/>
	<path class="st9" d="M79.48,107.84c-1.01,0-1.51-0.75-1.51-1.5c0-1,0.5-1.5,1.51-1.5h29.79c1,0,1.75,0.5,1.75,1.5
		c0,0.75-0.75,1.5-1.75,1.5H79.48z"/>
	<path class="st5" d="M79.48,129.12c-1.01,0-1.51-0.5-1.51-1.5c0-0.75,0.5-1.5,1.51-1.5h29.79c1,0,1.75,0.75,1.75,1.5
		c0,1-0.75,1.5-1.75,1.5H79.48z"/>
</g>
</svg>
