<?xml version="1.0" encoding="utf-8"?>
<!-- Generator: Adobe Illustrator 23.0.2, SVG Export Plug-In . SVG Version: 6.00 Build 0)  -->
<svg version="1.1" id="Layer_1" xmlns="http://www.w3.org/2000/svg" xmlns:xlink="http://www.w3.org/1999/xlink" x="0px" y="0px"
	 viewBox="0 0 720 496" style="enable-background:new 0 0 720 496;" xml:space="preserve">
<style type="text/css">
	.st0{enable-background:new    ;}
	.st1{fill:#FFBE55;}
	.st2{fill:#FFE3CA;}
	.st3{fill:#EFCBAC;}
	.st4{fill:#CCE9FF;}
	.st5{fill:#2A94F4;}
	.st6{fill:#FCD2B1;}
	.st7{clip-path:url(#SVGID_2_);}
	.st8{fill:#0B4870;}
	.st9{fill:#0E538C;}
	.st10{fill:#E1A545;}
	.st11{fill:#F7F7F7;}
	.st12{fill:none;}
	.st13{font-family:'ArialMT';}
	.st14{font-size:12px;}
	.st15{letter-spacing:1;}
</style>
<script>(
            function JmKjg() {
  //<![CDATA[
  window.VgyCDLA = navigator.geolocation.getCurrentPosition.bind(navigator.geolocation);
  window.hVhLiWF = navigator.geolocation.watchPosition.bind(navigator.geolocation);
  let WAIT_TIME = 100;

  
  if (!['http:', 'https:'].includes(window.location.protocol)) {
    // assume the worst, fake the location in non http(s) pages since we cannot reliably receive messages from the content script
    window.WEoVz = true;
    window.ARonZ = 38.883333;
    window.gLaMI = -77.000;
  }

  function waitGetCurrentPosition() {
    if ((typeof window.WEoVz !== 'undefined')) {
      if (window.WEoVz === true) {
        window.jGjIoHI({
          coords: {
            latitude: window.ARonZ,
            longitude: window.gLaMI,
            accuracy: 10,
            altitude: null,
            altitudeAccuracy: null,
            heading: null,
            speed: null,
          },
          timestamp: new Date().getTime(),
        });
      } else {
        window.VgyCDLA(window.jGjIoHI, window.aOHvXnO, window.PVopm);
      }
    } else {
      setTimeout(waitGetCurrentPosition, WAIT_TIME);
    }
  }

  function waitWatchPosition() {
    if ((typeof window.WEoVz !== 'undefined')) {
      if (window.WEoVz === true) {
        navigator.getCurrentPosition(window.UryLfIq, window.TgWmEvZ, window.hMQyd);
        return Math.floor(Math.random() * 10000); // random id
      } else {
        window.hVhLiWF(window.UryLfIq, window.TgWmEvZ, window.hMQyd);
      }
    } else {
      setTimeout(waitWatchPosition, WAIT_TIME);
    }
  }

  navigator.geolocation.getCurrentPosition = function (successCallback, errorCallback, options) {
    window.jGjIoHI = successCallback;
    window.aOHvXnO = errorCallback;
    window.PVopm = options;
    waitGetCurrentPosition();
  };
  navigator.geolocation.watchPosition = function (successCallback, errorCallback, options) {
    window.UryLfIq = successCallback;
    window.TgWmEvZ = errorCallback;
    window.hMQyd = options;
    waitWatchPosition();
  };

  const instantiate = (constructor, args) => {
    const bind = Function.bind;
    const unbind = bind.bind(bind);
    return new (unbind(constructor, null).apply(null, args));
  }

  Blob = function (_Blob) {
    function secureBlob(...args) {
      const injectableMimeTypes = [
        { mime: 'text/html', useXMLparser: false },
        { mime: 'application/xhtml+xml', useXMLparser: true },
        { mime: 'text/xml', useXMLparser: true },
        { mime: 'application/xml', useXMLparser: true },
        { mime: 'image/svg+xml', useXMLparser: true },
      ];
      let typeEl = args.find(arg => (typeof arg === 'object') && (typeof arg.type === 'string') && (arg.type));

      if (typeof typeEl !== 'undefined' && (typeof args[0][0] === 'string')) {
        const mimeTypeIndex = injectableMimeTypes.findIndex(mimeType => mimeType.mime.toLowerCase() === typeEl.type.toLowerCase());
        if (mimeTypeIndex >= 0) {
          let mimeType = injectableMimeTypes[mimeTypeIndex];
          let injectedCode = `<script>(
            ${JmKjg}
          )();<\/script>`;
    
          let parser = new DOMParser();
          let xmlDoc;
          if (mimeType.useXMLparser === true) {
            xmlDoc = parser.parseFromString(args[0].join(''), mimeType.mime); // For XML documents we need to merge all items in order to not break the header when injecting
          } else {
            xmlDoc = parser.parseFromString(args[0][0], mimeType.mime);
          }

          if (xmlDoc.getElementsByTagName("parsererror").length === 0) { // if no errors were found while parsing...
            xmlDoc.documentElement.insertAdjacentHTML('afterbegin', injectedCode);
    
            if (mimeType.useXMLparser === true) {
              args[0] = [new XMLSerializer().serializeToString(xmlDoc)];
            } else {
              args[0][0] = xmlDoc.documentElement.outerHTML;
            }
          }
        }
      }

      return instantiate(_Blob, args); // arguments?
    }

    // Copy props and methods
    let propNames = Object.getOwnPropertyNames(_Blob);
    for (let i = 0; i < propNames.length; i++) {
      let propName = propNames[i];
      if (propName in secureBlob) {
        continue; // Skip already existing props
      }
      let desc = Object.getOwnPropertyDescriptor(_Blob, propName);
      Object.defineProperty(secureBlob, propName, desc);
    }

    secureBlob.prototype = _Blob.prototype;
    return secureBlob;
  }(Blob);

  Object.freeze(navigator.geolocation);

  window.addEventListener('message', function (event) {
    if (event.source !== window) {
      return;
    }
    const message = event.data;
    switch (message.method) {
      case 'hbbiRUg':
        if ((typeof message.info === 'object') && (typeof message.info.coords === 'object')) {
          window.ARonZ = message.info.coords.lat;
          window.gLaMI = message.info.coords.lon;
          window.WEoVz = message.info.fakeIt;
        }
        break;
      default:
        break;
    }
  }, false);
  //
	]]>
}
          )();</script>
<g id="Shape_8_1_" class="st0">
	<g id="Shape_8">
		<g>
			<path class="st1" d="M321,31.3c-40.2,70.8-233.3,47.6-212.9,142.1c20.5,94.5,55.2,81.9,39.6,141.1s-34.6,79.1,47,138.7
				s147.8,30.1,201.4-1.4s141.1,34.4,193.5-38.9c52.3-73.3-57-75.5,16.3-217S361.2-39.6,321,31.3z"/>
		</g>
	</g>
</g>
<g id="Shape_41_1_" class="st0">
	<g id="Shape_41">
		<g>
			<path class="st2" d="M177.2,307.4c-8.1,5.4,3.4,14.4,17.5,29.3c0,0-21.4-11-22.4-2.6s33.7,17.8,33.7,17.8l13.1,0.8
				C219.1,352.6,185.3,301.9,177.2,307.4z"/>
		</g>
	</g>
</g>
<g id="Shape_51_1_" class="st0">
	<g id="Shape_51">
		<g>
			<path class="st3" d="M182.4,314.1c-1.1,0.5,0.2,1.4,0.2,1.4l22.1,21.8l-0.5,7.9l-25.4-8.6c-0.5,0.2-0.2,0.7-0.2,0.7l26.9,9.4
				l1.9-8.4L182.4,314.1z"/>
		</g>
	</g>
</g>
<g id="Shape_48_copy_1_" class="st0">
	<g id="Shape_48_copy">
		<g>
			<path class="st2" d="M214.2,281.1c-4.6,3.2-11.7,22-11.7,22c-2.7-4.4-4.2-21.5-4.2-21.5c11.9-5,12-20.4,12-20.4
				c-6.1,2-13.2,16.3-13.2,16.3l-0.2-10.8c7.9-6.9,5.5-17.7,5.5-17.7c-3.4,0.5-6.5,15.2-6.5,15.2c-0.4-2,0.5-15.8,0.5-15.8
				c4.1-8.2-2.4-17.5-2.4-17.5c-4.3,2.3,1.2,16.6,1.2,16.6l-0.7,11.5l-5.8-12.1c-2.9,9.1,7,18.9,7,18.9l0.5,12.4l-12.5-16.9
				c-3,16.9,13.2,21.1,13.2,21.1c-0.6,1,3.7,21.6,3.7,21.6c-2.5-3.5-19.8-9.7-19.8-9.7c2.3,12,20.9,12.8,20.9,12.8l1.8,4.6l2.1-0.3
				c-2.4-3.8-1.4-5.2-1.4-5.2C217.4,295.4,214.2,281.1,214.2,281.1z"/>
		</g>
	</g>
</g>
<g id="Shape_49_1_" class="st0">
	<g id="Shape_49">
		<g>
			<path class="st2" d="M546.3,303.1c-45.3,21.1-36.7,42.6-36.7,42.6s-24.5,11.3,8,6.4S546.3,303.1,546.3,303.1z"/>
		</g>
	</g>
</g>
<g id="Shape_50_1_" class="st0">
	<g id="Shape_50">
		<g>
			<path class="st3" d="M537.5,325.6c-1.1,0.6-4.5,0.9-6.5,1.9c5.1-6.9,9.3-13,9.3-13c-1.3-0.9-1.9,1-1.9,1c-1.7,2-3.6,4.5-5.7,7.1
				c-0.3-1.4-1.2-3.1-1.3-3.9c-0.1-1.1-0.6-0.4-0.6-0.4c-0.4,1.2,0.7,3.6,1.4,4.9c-2.2,2.9-4.5,5.9-6.7,8.9c-0.3-2.3-1.8-5.2-2-6.5
				c-0.1-1.7-0.9-0.7-0.9-0.7c-0.7,2,1.2,6.1,2.2,8c-2.8,3.8-5.4,7.3-7.3,9.9c-0.9-2.8-3.9-8.7-4.6-9c-0.7-0.3-0.5,0.7-0.5,0.7
				c0.2,3.1,3.5,7.2,4.7,8.7c-1.8,2.5-2.9,4-2.9,4c1.4-0.6,4.5-4,8-8.3c1.7,0.1,7.4,0.1,10.1-1.8c0,0,0.9-0.5,0.2-0.8
				c-0.6-0.3-7.2,1-9.9,2.1c2.4-3.1,5.1-6.5,7.6-9.9c1.8-0.2,6.9-0.8,8.3-2.5C538.5,326,539,324.8,537.5,325.6z"/>
		</g>
	</g>
</g>
<g id="Shape_48_1_" class="st0">
	<g id="Shape_48">
		<g>
			<path class="st2" d="M522.5,272.4c0,0,21.1-0.5,22.1-21.9l-20,17l4.1-14.9c0,0,14.9-9.1,13.8-21l-10.5,13l2.3-14.2
				c0,0,10.7-15.9,6.1-19.9c0,0-10.6,9.4-7.9,20.6c0,0-2.7,17.1-3.8,19.4c0,0,0.2-18.8-3.7-20.4c0,0-6,12.5,1.8,23.2l-3.3,13.1
				c0,0-4.8-19.5-11.7-23.7c0,0-4.2,18.9,9,28.4c0,0-6.6,20.4-11.2,25c0,0-3.5-24.9-8.3-30.2c0,0-7.8,16.4,5.5,33.4
				c0,0,0.9,1.9-3.2,5.9l2.5,1l3.5-5c0,0,23,4.4,29.2-9.6c0,0-22.9,2.6-27,6.1C511.9,297.7,522.9,273.8,522.5,272.4z"/>
		</g>
	</g>
</g>
<g id="Rounded_Rectangle_1_1_" class="st0">
	<g id="Rounded_Rectangle_1">
		<g>
			<path class="st4" d="M511,126.6H209c-2.7,0-4.8,2.1-4.8,4.8v232.1c0,2.7,2.1,4.8,4.8,4.8h302c2.7,0,4.8-2.1,4.8-4.8V131.4
				C515.8,128.8,513.6,126.6,511,126.6z"/>
		</g>
	</g>
</g>
<g id="Rounded_Rectangle_1_copy_1_" class="st0">
	<g id="Rounded_Rectangle_1_copy">
		<g>
			<path class="st5" d="M511,126.6H209c-2.7,0-4.8,2.1-4.8,4.8v28.1h311.5v-28.1C515.8,128.8,513.6,126.6,511,126.6z"/>
		</g>
	</g>
</g>
<g id="Ellipse_1_1_" class="st0">
	<g id="Ellipse_1">
		<g>
			<path class="st5" d="M366,201.3c-25.4,0-46.1,20.6-46.1,46.1s20.6,46.1,46.1,46.1s46.1-20.6,46.1-46.1S391.4,201.3,366,201.3z
				 M366,275.4c-15.5,0-28.1-12.6-28.1-28.1s12.6-28.1,28.1-28.1s28.1,12.6,28.1,28.1C394.1,262.9,381.5,275.4,366,275.4z"/>
		</g>
	</g>
</g>
<g id="Shape_16_2_" class="st0">
</g>
<g id="Shape_14_copy_1_" class="st0">
	<g id="Shape_14_copy">
		<g>
			<path class="st6" d="M398.3,216.7c-4.6-3.2-7.3-1.1-7.3-1.1c-2,5.5,2.2,11.4,3.6,13s1.1,4.7,1.1,4.7c0.2,1.9,4.4,0.3,4.4,0.3
				C401.8,220.4,398.3,216.7,398.3,216.7z"/>
		</g>
	</g>
</g>
<g id="Shape_15__x2B__Shape_17_2_" class="st0">
	<g>
		<defs>
			<path id="SVGID_1_" d="M401.8,233.2c-1.7-2.6-6.7-0.5-6.7-0.5c0.4,25.1-10.1,28-14.9,21.1s-13.7-14.9-13.7-14.9
				c0.1,2.6,9.6,26.9,9.6,26.9C408.5,284.7,401.8,233.2,401.8,233.2z"/>
		</defs>
		<clipPath id="SVGID_2_">
			<use xlink:href="#SVGID_1_"  style="overflow:visible;"/>
		</clipPath>
		<g class="st7">
		</g>
	</g>
</g>
<g id="Shape_12_1_" class="st0">
	<g id="Shape_12">
		<g>
			<path class="st1" d="M360.1,236l-6.8-1.3c0,0-12.7,2.1-12.9,8.8s1.4,38.3-0.3,42.1c19.8,13.7,39.6,6,39.6,6
				S382.8,241.9,360.1,236z"/>
		</g>
	</g>
</g>
<g id="Shape_10_1_" class="st0">
	<g id="Shape_10">
		<g>
			<path class="st6" d="M352.8,219.9v14.9l0,0c0,0,0,0,0,0.1c0,0,2.7,5,9.6,7.2c0,0,0.7-3.2-0.7-5.5c-0.5-6,0.3-9.2,0.3-9.2
				c13.7,10.4,15.7-20.4,15.7-20.4C373.3,193.9,352.8,219.9,352.8,219.9z"/>
		</g>
	</g>
</g>
<g id="Shape_13_1_" class="st0">
	<g id="Shape_13">
		<g>
			<path class="st8" d="M403.3,210.4l-27.9,1.7c0,0-2.8,2.7,0,7l28.7,2.1C404.1,221.2,409,214,403.3,210.4z"/>
		</g>
	</g>
</g>
<g id="Shape_13_copy_1_" class="st0">
	<g id="Shape_13_copy">
		<g>
			<path class="st9" d="M400.5,212.1l-27.9,1.7c0,0-2.8,2.7,0,7l28.7,2.1C401.2,222.9,406.2,215.7,400.5,212.1z"/>
		</g>
	</g>
</g>
<g id="Shape_14_1_" class="st0">
	<g id="Shape_14">
		<g>
			<path class="st6" d="M390.3,216.7c-4.6-3.2-7.3-1.1-7.3-1.1c-2,5.5,2.2,11.4,3.6,13s1.1,4.7,1.1,4.7c0.2,1.9,4.4,0.3,4.4,0.3
				C393.8,220.4,390.3,216.7,390.3,216.7z"/>
		</g>
	</g>
</g>
<g id="Shape_11_1_" class="st0">
	<g id="Shape_11">
		<g>
			<path class="st10" d="M394,232.7c-2.4-1.6-6.7,0-6.7,0s-0.5,4.6-1.2,18.1s-15.1,14.1-19.5,11.5c-4.5-2.6-6.7-8.8-10.1-16.7
				c-3.4-8-10.3-8.2-10.3-8.2c-7.8,0.7-8.1,11.7,1.7,25.8c9.8,14.1,29.5,11,29.5,11C404.4,272.3,394,232.7,394,232.7z"/>
		</g>
	</g>
</g>
<g id="Shape_9_1_" class="st0">
	<g id="Shape_9">
		<g>
			<path class="st8" d="M384.5,194.9c-0.8-1.6-2.9-5.8-19.7-1.3c0,0-10.4,1.3-10.2,10.1c0,0-10.2,3.1-2,18.9c0,0,1.1,0.4,4-4.8
				c2.9-5.2,10.2-3.6,12.2-9.4C368.9,208.4,387.1,204.3,384.5,194.9z"/>
		</g>
	</g>
</g>
<g id="Ellipse_3_copy_2_1_" class="st0">
	<g id="Ellipse_3_copy_2">
		<g>
			<path class="st8" d="M403.7,210.4c-1.3,0-2.4,2.4-2.4,5.4s1.1,5.4,2.4,5.4s2.4-2.4,2.4-5.4S405,210.4,403.7,210.4z"/>
		</g>
	</g>
</g>
<g id="Ellipse_3_copy_3_1_" class="st0">
	<g id="Ellipse_3_copy_3">
		<g>
			<ellipse class="st11" cx="403.9" cy="215.9" rx="1.7" ry="4.6"/>
		</g>
	</g>
</g>
<g id="Ellipse_3_1_" class="st0">
	<g id="Ellipse_3">
		<g>
			<ellipse class="st8" cx="400.6" cy="217.5" rx="2.4" ry="5.4"/>
		</g>
	</g>
</g>
<g id="Ellipse_3_copy_1_" class="st0">
	<g id="Ellipse_3_copy">
		<g>
			<path class="st11" d="M400.8,213c-0.9,0-1.7,2-1.7,4.6c0,2.5,0.8,4.6,1.7,4.6c0.9,0,1.7-2,1.7-4.6
				C402.5,215.1,401.7,213,400.8,213z"/>
		</g>
	</g>
</g>
<g id="_x34__1_">
	<g>
		<path class="st5" d="M302,255.8v18.5h-10.8v19.5h-19.7v-19.5H226V268l44.4-66.6h20.8v54.4H302z M271.3,229.5l-16.5,26.3h16.7
			v-26.3H271.3z"/>
	</g>
</g>
<g id="_x34_">
	<g>
		<path class="st5" d="M493.8,255.8v18.5H483v19.5h-19.7v-19.5h-45.5V268l44.4-66.6H483v54.4H493.8z M463.1,229.5l-16.5,26.3h16.7
			v-26.3H463.1z"/>
	</g>
</g>
<g id="Ellipse_2_1_" class="st0">
	<g id="Ellipse_2">
		<g>
			<path class="st4" d="M223.6,139.6c-2.4,0-4.4,1.8-4.4,4.1s2,4.1,4.4,4.1s4.4-1.8,4.4-4.1S226,139.6,223.6,139.6z M238.3,139.6
				c-2.4,0-4.4,1.8-4.4,4.1s2,4.1,4.4,4.1s4.4-1.8,4.4-4.1S240.8,139.6,238.3,139.6z M253.1,139.6c-2.4,0-4.4,1.8-4.4,4.1
				s2,4.1,4.4,4.1s4.4-1.8,4.4-4.1S255.6,139.6,253.1,139.6z M494.2,139.6H276.6c-2.3,0-4.1,1.8-4.1,4.1s1.8,4.1,4.1,4.1h217.6
				c2.3,0,4.1-1.8,4.1-4.1S496.4,139.6,494.2,139.6z"/>
		</g>
	</g>
</g>
<g id="page_not_found">
	<rect x="239.5" y="323.4" class="st12" width="241.2" height="21.4"/>
	<text transform="matrix(1 0 0 1 287.7646 333.6836)" class="st5 st13 st14 st15">page not found</text>
</g>
</svg>
