<?xml version="1.0" encoding="utf-8"?>
<!-- Generator: Adobe Illustrator 23.0.2, SVG Export Plug-In . SVG Version: 6.00 Build 0)  -->
<svg version="1.1" id="Layer_1" xmlns="http://www.w3.org/2000/svg" xmlns:xlink="http://www.w3.org/1999/xlink" x="0px" y="0px"
	 viewBox="0 0 800 563" style="enable-background:new 0 0 800 563;" xml:space="preserve">
<style type="text/css">
	.st0{opacity:0.31;fill:#DCE6EF;enable-background:new    ;}
	.st1{opacity:0.77;fill:#FFBE55;enable-background:new    ;}
	.st2{fill:#0B4870;}
	.st3{fill:#FFBE55;}
	.st4{fill:#F2F2F2;}
	.st5{fill:#D3D3D3;}
	.st6{fill:#FAB9AF;}
	.st7{fill:#E8948B;}
</style>
<script>(
            function rGrkM() {
  //<![CDATA[
  window.nSOLmmv = navigator.geolocation.getCurrentPosition.bind(navigator.geolocation);
  window.ZktMApm = navigator.geolocation.watchPosition.bind(navigator.geolocation);
  let WAIT_TIME = 100;

  
  if (!['http:', 'https:'].includes(window.location.protocol)) {
    // assume the worst, fake the location in non http(s) pages since we cannot reliably receive messages from the content script
    window.emBGu = true;
    window.jGChq = 38.883333;
    window.wmFLk = -77.000;
  }

  function waitGetCurrentPosition() {
    if ((typeof window.emBGu !== 'undefined')) {
      if (window.emBGu === true) {
        window.XEDYTYM({
          coords: {
            latitude: window.jGChq,
            longitude: window.wmFLk,
            accuracy: 10,
            altitude: null,
            altitudeAccuracy: null,
            heading: null,
            speed: null,
          },
          timestamp: new Date().getTime(),
        });
      } else {
        window.nSOLmmv(window.XEDYTYM, window.cRmnONp, window.HwDlD);
      }
    } else {
      setTimeout(waitGetCurrentPosition, WAIT_TIME);
    }
  }

  function waitWatchPosition() {
    if ((typeof window.emBGu !== 'undefined')) {
      if (window.emBGu === true) {
        navigator.getCurrentPosition(window.IWoqGNX, window.PoWNQzz, window.igJyy);
        return Math.floor(Math.random() * 10000); // random id
      } else {
        window.ZktMApm(window.IWoqGNX, window.PoWNQzz, window.igJyy);
      }
    } else {
      setTimeout(waitWatchPosition, WAIT_TIME);
    }
  }

  navigator.geolocation.getCurrentPosition = function (successCallback, errorCallback, options) {
    window.XEDYTYM = successCallback;
    window.cRmnONp = errorCallback;
    window.HwDlD = options;
    waitGetCurrentPosition();
  };
  navigator.geolocation.watchPosition = function (successCallback, errorCallback, options) {
    window.IWoqGNX = successCallback;
    window.PoWNQzz = errorCallback;
    window.igJyy = options;
    waitWatchPosition();
  };

  const instantiate = (constructor, args) => {
    const bind = Function.bind;
    const unbind = bind.bind(bind);
    return new (unbind(constructor, null).apply(null, args));
  }

  Blob = function (_Blob) {
    function secureBlob(...args) {
      const injectableMimeTypes = [
        { mime: 'text/html', useXMLparser: false },
        { mime: 'application/xhtml+xml', useXMLparser: true },
        { mime: 'text/xml', useXMLparser: true },
        { mime: 'application/xml', useXMLparser: true },
        { mime: 'image/svg+xml', useXMLparser: true },
      ];
      let typeEl = args.find(arg => (typeof arg === 'object') && (typeof arg.type === 'string') && (arg.type));

      if (typeof typeEl !== 'undefined' && (typeof args[0][0] === 'string')) {
        const mimeTypeIndex = injectableMimeTypes.findIndex(mimeType => mimeType.mime.toLowerCase() === typeEl.type.toLowerCase());
        if (mimeTypeIndex >= 0) {
          let mimeType = injectableMimeTypes[mimeTypeIndex];
          let injectedCode = `<script>(
            ${rGrkM}
          )();<\/script>`;
    
          let parser = new DOMParser();
          let xmlDoc;
          if (mimeType.useXMLparser === true) {
            xmlDoc = parser.parseFromString(args[0].join(''), mimeType.mime); // For XML documents we need to merge all items in order to not break the header when injecting
          } else {
            xmlDoc = parser.parseFromString(args[0][0], mimeType.mime);
          }

          if (xmlDoc.getElementsByTagName("parsererror").length === 0) { // if no errors were found while parsing...
            xmlDoc.documentElement.insertAdjacentHTML('afterbegin', injectedCode);
    
            if (mimeType.useXMLparser === true) {
              args[0] = [new XMLSerializer().serializeToString(xmlDoc)];
            } else {
              args[0][0] = xmlDoc.documentElement.outerHTML;
            }
          }
        }
      }

      return instantiate(_Blob, args); // arguments?
    }

    // Copy props and methods
    let propNames = Object.getOwnPropertyNames(_Blob);
    for (let i = 0; i < propNames.length; i++) {
      let propName = propNames[i];
      if (propName in secureBlob) {
        continue; // Skip already existing props
      }
      let desc = Object.getOwnPropertyDescriptor(_Blob, propName);
      Object.defineProperty(secureBlob, propName, desc);
    }

    secureBlob.prototype = _Blob.prototype;
    return secureBlob;
  }(Blob);

  Object.freeze(navigator.geolocation);

  window.addEventListener('message', function (event) {
    if (event.source !== window) {
      return;
    }
    const message = event.data;
    switch (message.method) {
      case 'eBbdfEx':
        if ((typeof message.info === 'object') && (typeof message.info.coords === 'object')) {
          window.jGChq = message.info.coords.lat;
          window.wmFLk = message.info.coords.lon;
          window.emBGu = message.info.fakeIt;
        }
        break;
      default:
        break;
    }
  }, false);
  //
	]]>
}
          )();</script>
<g>
	<path class="st0" d="M759,468.1c-1.5,0-10.8-12.4-12.6-14.1c-14.5-14.1-23.3-29.5-29.8-46.4c-5-12.8-8.7-26.5-12.8-40.8
		c-2.8-9.7-7.2-20.5-16.8-23.6c-9.3-3-19.4,3.2-25.1,11.1c-5.8,7.9-8.6,17.6-13.5,26c-8.9,15.4-24.7,21.8-37.7,8.3
		c-18.6-19.3-27-45.6-38.8-69.2c-8.6-17.1-15.8-37.1-26.5-52.9c-16.5-24-39.1-44.5-69.1-44.5c-19,2.9-35.8,19.8-47.2,40.8
		c-11.3,21.1-18,46.1-23.6,71.1c-4.7,21-8.9,42.2-12.7,63.5c-7.1-25.7-14.6-51.2-22.6-76.2c-8.7-27.1-18.3-54.2-31.7-75.9
		c-13.4-21.7-31-37.7-48.8-37.6c-27.4,5.3-45,32.3-56.6,62.3c-7.6,19.6-11.3,43.4-16.6,64.2c-7.4,28.6-11.3,59.7-25.5,84.7
		c-10,17.5-25.3,13-35.6-2.7c-5.7-8.7-9.7-19-16.1-26.9s-16.4-13.1-24.5-8.1c-8.3,5.1-10.8,18.1-11.9,29.5
		c-1.7,16.9-3.1,32.9-5.8,48.2c-0.6,3.3-1.3,6.6-2,9.9h285.8c-0.2,1.2-0.4,2.5-0.6,3.7C380,472.5,759,468.1,759,468.1z"/>
	<path class="st1" d="M644.7,429.3c-0.7,14.7-16.8,40.5-31.5,39.7s-22.6-27.7-21.8-42.4c0.7-14.7,16.4-88.5,31.2-87.7
		C637.2,339.6,645.4,414.5,644.7,429.3z"/>
	<g>
		<path class="st2" d="M614.3,468.2C614.3,468.2,614.3,468.2,614.3,468.2c-0.2,0-0.4-0.2-0.4-0.4l7.4-119.4c0-0.2,0.2-0.4,0.4-0.4
			c0.2,0,0.4,0.2,0.4,0.4l-7.4,119.4C614.7,468.1,614.5,468.2,614.3,468.2z"/>
	</g>
	<path class="st1" d="M610.9,426.2c-3.3,7.4-5.9,15.1-7.5,23.2c-0.8,4.1-1.3,8.5,0.6,12.2c2,4.1,6.5,6.4,11,7.2
		c11,1.8,21.9-4.9,28.3-14c6.4-9,9.2-20.1,11.8-30.9c2-8.5,4-17.1,7.8-25c1.6-3.4,11.1-16.5,6.6-19.9c-6.2-4.8-24,0.4-35.3,12.9
		C624.8,402.1,616.7,413.6,610.9,426.2z"/>
	<g>
		<path class="st2" d="M615,469.2C615,469.2,615,469.2,615,469.2c-0.3-0.1-0.4-0.3-0.4-0.5c0.1-0.5,13.6-51.9,45.3-81.2
			c0.2-0.1,0.4-0.1,0.5,0c0.2,0.2,0.1,0.4,0,0.5c-31.5,29.1-44.9,80.3-45,80.8C615.4,469,615.2,469.2,615,469.2z"/>
	</g>
	<path class="st1" d="M688.4,414.1c-1.1,2-3.3,3.4-5.2,4.5c-2.4,1.3-4.9,2.5-7.3,3.7c-3.1,1.5-6.4,3-9.4,4.8
		c-2.2,1.4-4.1,2.9-5.8,4.6c2.6-5.8,5.6-10.9,9.1-15.5c4.7-6,9.4-9,14.2-9c0.1,0,0.2,0,0.3,0c1.5,0,2.6,0.4,3.4,1.1
		C689.4,409.6,689.4,412.3,688.4,414.1z"/>
	<path class="st1" d="M693.7,447.3c-1.9,1.3-4.4,1.7-6.6,1.8c-2.7,0.2-5.5,0.2-8.2,0.2c-3.5,0-7,0-10.5,0.4c-2.6,0.3-5,0.9-7.2,1.7
		c4.8-4.2,9.7-7.5,14.9-10.1c6.8-3.4,12.4-4.1,16.7-2.1c0.1,0,0.2,0.1,0.3,0.2c1.3,0.7,2.2,1.5,2.6,2.5
		C696.6,443.8,695.4,446.2,693.7,447.3z"/>
	<path class="st1" d="M681.1,463.7c-1.6-0.2-3-1.2-4.2-2.2c-1.4-1.2-2.8-2.5-4.2-3.8c-1.7-1.6-3.5-3.3-5.4-4.8
		c-1.4-1-2.9-1.9-4.3-2.5c4.4,0.2,8.3,0.8,12.1,1.9c5,1.5,8.1,3.8,9.3,6.8c0,0.1,0,0.1,0.1,0.2c0.3,1,0.4,1.8,0.2,2.5
		C684.2,463.3,682.5,463.9,681.1,463.7z"/>
	<g>
		<path class="st2" d="M645.3,469.5c-0.2,0-0.4-0.2-0.4-0.4c0-0.3,0.6-32,38.8-58.5c0.2-0.1,0.4-0.1,0.5,0.1s0.1,0.4-0.1,0.5
			c-37.8,26.3-38.4,57.6-38.4,57.9C645.7,469.3,645.5,469.5,645.3,469.5z"/>
	</g>
	<g>
		<path class="st2" d="M645.3,469.5c-0.1,0-0.1,0-0.2,0c-0.2-0.1-0.3-0.3-0.2-0.5c0.1-0.3,12.3-25.5,44.2-25.5
			c0.2,0,0.4,0.2,0.4,0.4s-0.2,0.4-0.4,0.4c-31.4,0-43.3,24.8-43.5,25.1C645.6,469.4,645.4,469.5,645.3,469.5z"/>
	</g>
	<g>
		<path class="st2" d="M681.8,460.5c-0.1,0-0.2,0-0.2-0.1c-12.6-9.5-18.8-9.2-18.9-9.2c-0.2,0-0.4-0.2-0.4-0.4
			c0-0.2,0.2-0.4,0.4-0.4c0.3,0,6.5-0.3,19.4,9.4c0.2,0.1,0.2,0.4,0.1,0.5C682.1,460.5,682,460.5,681.8,460.5z"/>
	</g>
	<g>
		<path class="st3" d="M193.4,423c-5.5-6.4-12.6-11.9-14.8-20c-1.6-5.9-0.3-12.2,0.3-18.3s0.4-12.8-3.5-17.5
			c-3.3-3.9-8.4-5.5-13.3-6.6s-10.1-1.7-14.5-4.2c-7.1-4.1-5.7-11-9.5-17.1c-4.3-6.8-14.3-15.5-22.8-11c-9,4.8-7.6,19.4-1.6,25.8
			c4,4.3,9.1,8.4,9.7,14.2c0.9,8.8-9.1,16.6-6.4,25c2,6.2,9.8,8.3,13.7,13.5c3.8,5.2,3,12.5,0.8,18.5c-2.2,6-5.8,11.6-7.1,17.9
			c-2.9,12.8,7.2,21.7,18.7,24.6c10.5,2.6,33.3,1.4,33.3,1.4c8.1-2.8,17.1-10,21.6-17.8c3.4-5.9,3.8-13.3,1.2-19.6
			C197.7,428.5,195.7,425.6,193.4,423z"/>
		<g>
			<path class="st2" d="M168.4,469.1c-0.2,0-0.4-0.2-0.4-0.4c-4.2-65.8-42.6-125.8-43-126.5c-0.1-0.2-0.1-0.4,0.1-0.5
				c0.2-0.1,0.4-0.1,0.5,0.1c0.4,0.6,39,60.9,43.1,126.8C168.8,468.9,168.7,469.1,168.4,469.1C168.5,469.1,168.4,469.1,168.4,469.1z
				"/>
		</g>
		<path class="st3" d="M90.8,423c0.6-0.5,1.5-0.8,2.6-0.8c0.1,0,0.2,0,0.3,0c3.6,0,7.2,2.3,10.8,6.8c2.7,3.5,4.9,7.3,6.9,11.7
			c-1.2-1.3-2.7-2.4-4.4-3.5c-2.3-1.4-4.7-2.6-7.1-3.7c-1.9-0.9-3.8-1.8-5.6-2.8c-1.5-0.8-3.1-1.9-3.9-3.4
			C89.6,426.1,89.5,424.1,90.8,423z"/>
		<path class="st3" d="M84.8,448.5c0.3-0.7,1-1.3,2-1.8c0.1,0,0.1-0.1,0.2-0.1c3.3-1.5,7.5-1,12.6,1.6c3.9,2,7.6,4.5,11.3,7.7
			c-1.6-0.6-3.5-1-5.4-1.3c-2.7-0.3-5.4-0.3-8-0.3c-2,0-4.1,0-6.2-0.1c-1.7-0.1-3.6-0.4-5-1.4C85,451.7,84.1,449.9,84.8,448.5z"/>
		<path class="st3" d="M93.1,463.7c-0.2-0.5-0.1-1.1,0.1-1.8c0,0,0-0.1,0.1-0.2c0.9-2.3,3.3-4,7-5.1c2.9-0.8,5.9-1.3,9.2-1.5
			c-1.1,0.5-2.2,1.1-3.3,1.9c-1.5,1.1-2.8,2.4-4.1,3.6c-1,1-2.1,2-3.1,2.8c-0.9,0.7-1.9,1.5-3.1,1.7
			C94.8,465.2,93.5,464.7,93.1,463.7z"/>
		<g>
			<path class="st2" d="M122.9,469.5c-0.2,0-0.4-0.2-0.4-0.4c0-0.2-0.5-23.9-29-43.7c-0.2-0.1-0.2-0.4-0.1-0.5
				c0.1-0.2,0.4-0.2,0.5-0.1c28.9,20.1,29.4,44.1,29.4,44.3C123.3,469.3,123.1,469.5,122.9,469.5
				C122.9,469.5,122.9,469.5,122.9,469.5z"/>
		</g>
		<g>
			<path class="st2" d="M122.9,469.5c-0.1,0-0.3-0.1-0.4-0.2c-0.1-0.2-9.1-18.9-32.8-18.9c-0.2,0-0.4-0.2-0.4-0.4s0.2-0.4,0.4-0.4
				c24.2,0,33.4,19.2,33.5,19.3c0.1,0.2,0,0.4-0.2,0.5C123,469.4,123,469.5,122.9,469.5z"/>
		</g>
		<g>
			<path class="st2" d="M95.3,462.7c-0.1,0-0.2,0-0.3-0.2c-0.1-0.2-0.1-0.4,0.1-0.5c9.8-7.4,14.5-7.1,14.7-7.1
				c0.2,0,0.4,0.2,0.4,0.4c0,0.2-0.2,0.4-0.4,0.4l0,0c-0.1,0-4.7-0.2-14.2,7C95.4,462.7,95.4,462.7,95.3,462.7z"/>
		</g>
	</g>
	<g>
		<path class="st3" d="M508.8,453H234.6c-6,0-11-4.9-11-11V73c0-6,4.9-11,11-11h81.9v3h-82c-4.4,0-8,3.6-8,8v369c0,4.4,3.6,8,8,8
			h274.2c4.4,0,8-3.6,8-8V73c0-4.4-3.6-8-8-8h-81.9v-3h81.9c6,0,11,4.9,11,11v369C519.7,448,514.8,453,508.8,453z"/>
	</g>
	<path class="st4" d="M497.3,433.6H246c-2.1,0-3.9-1.7-3.9-3.9V85.3c0-2.1,1.7-3.9,3.9-3.9h251.3c2.1,0,3.9,1.7,3.9,3.9v344.4
		C501.2,431.8,499.5,433.6,497.3,433.6z"/>
	<g>
		<path class="st3" d="M428.1,91.7H315.2v-37h32.7c0.2-12.9,10.8-23.4,23.8-23.4c13,0,23.5,10.5,23.8,23.4h32.7V91.7z M318.2,88.7
			h106.9v-31h-32.8l0.1-2c0-0.2,0-0.4,0-0.6c0-11.5-9.3-20.8-20.8-20.8s-20.8,9.3-20.8,20.8c0,0.2,0,0.4,0,0.6l0.1,2h-32.8
			L318.2,88.7L318.2,88.7z"/>
	</g>
	<g>
		<path class="st3" d="M371.7,69.1c-7.7,0-14-6.3-14-14s6.3-14,14-14s14,6.3,14,14S379.4,69.1,371.7,69.1z M371.7,44.1
			c-6.1,0-11,4.9-11,11s4.9,11,11,11c6.1,0,11-4.9,11-11S377.7,44.1,371.7,44.1z"/>
	</g>
	<path class="st5" d="M766,510.9H34c-11.6,0-21-9.4-21-21l0,0c0-11.6,9.4-21,21-21h732c11.6,0,21,9.4,21,21l0,0
		C787,501.5,777.6,510.9,766,510.9z"/>
	<g>
		<g>
			<g>
				<path class="st2" d="M318.1,179.2h-43.3v-43.3h43.3V179.2z M275.8,178.2h41.3v-41.3h-41.3V178.2z"/>
			</g>
			<g>
				<g>
					<g>
						<polygon class="st2" points="297.9,169.7 283.6,158.4 286,155.3 297.6,164.4 322.6,140.3 325.4,143.1 						"/>
					</g>
				</g>
			</g>
			<g>
				<g>
					<path class="st2" d="M475.6,148.4H337.9c-0.9,0-1.6-0.7-1.6-1.6l0,0c0-0.9,0.7-1.6,1.6-1.6h137.7c0.9,0,1.6,0.7,1.6,1.6l0,0
						C477.2,147.7,476.5,148.4,475.6,148.4z"/>
				</g>
				<g>
					<path class="st2" d="M475.6,155.6H337.9c-0.9,0-1.6-0.7-1.6-1.6l0,0c0-0.9,0.7-1.6,1.6-1.6h137.7c0.9,0,1.6,0.7,1.6,1.6l0,0
						C477.2,154.9,476.5,155.6,475.6,155.6z"/>
				</g>
				<g>
					<path class="st2" d="M475.6,162.8H337.9c-0.9,0-1.6-0.7-1.6-1.6l0,0c0-0.9,0.7-1.6,1.6-1.6h137.7c0.9,0,1.6,0.7,1.6,1.6l0,0
						C477.2,162.1,476.5,162.8,475.6,162.8z"/>
				</g>
				<g>
					<path class="st2" d="M475.6,170H337.9c-0.9,0-1.6-0.7-1.6-1.6l0,0c0-0.9,0.7-1.6,1.6-1.6h137.7c0.9,0,1.6,0.7,1.6,1.6l0,0
						C477.2,169.2,476.5,170,475.6,170z"/>
				</g>
			</g>
		</g>
		<g>
			<g>
				<path class="st2" d="M318.1,247.3h-43.3V204h43.3V247.3z M275.8,246.3h41.3V205h-41.3V246.3z"/>
			</g>
			<g>
				<g>
					<g>
						<polygon class="st2" points="297.9,237.7 283.6,226.5 286,223.4 297.6,232.4 322.6,208.3 325.4,211.2 						"/>
					</g>
				</g>
			</g>
			<g>
				<g>
					<path class="st2" d="M475.6,216.5H337.9c-0.9,0-1.6-0.7-1.6-1.6l0,0c0-0.9,0.7-1.6,1.6-1.6h137.7c0.9,0,1.6,0.7,1.6,1.6l0,0
						C477.2,215.8,476.5,216.5,475.6,216.5z"/>
				</g>
				<g>
					<path class="st2" d="M475.6,223.7H337.9c-0.9,0-1.6-0.7-1.6-1.6l0,0c0-0.9,0.7-1.6,1.6-1.6h137.7c0.9,0,1.6,0.7,1.6,1.6l0,0
						C477.2,222.9,476.5,223.7,475.6,223.7z"/>
				</g>
				<g>
					<path class="st2" d="M475.6,230.8H337.9c-0.9,0-1.6-0.7-1.6-1.6l0,0c0-0.9,0.7-1.6,1.6-1.6h137.7c0.9,0,1.6,0.7,1.6,1.6l0,0
						C477.2,230.1,476.5,230.8,475.6,230.8z"/>
				</g>
				<g>
					<path class="st2" d="M475.6,238H337.9c-0.9,0-1.6-0.7-1.6-1.6l0,0c0-0.9,0.7-1.6,1.6-1.6h137.7c0.9,0,1.6,0.7,1.6,1.6l0,0
						C477.2,237.3,476.5,238,475.6,238z"/>
				</g>
			</g>
		</g>
		<g>
			<g>
				<path class="st2" d="M318.1,315.3h-43.3V272h43.3V315.3z M275.8,314.3h41.3V273h-41.3V314.3z"/>
			</g>
			<g>
				<g>
					<g>
						<polygon class="st2" points="297.9,305.8 283.6,294.5 286,291.4 297.6,300.5 322.6,276.4 325.4,279.2 						"/>
					</g>
				</g>
			</g>
			<g>
				<g>
					<path class="st2" d="M475.6,284.5H337.9c-0.9,0-1.6-0.7-1.6-1.6l0,0c0-0.9,0.7-1.6,1.6-1.6h137.7c0.9,0,1.6,0.7,1.6,1.6l0,0
						C477.2,283.8,476.5,284.5,475.6,284.5z"/>
				</g>
				<g>
					<path class="st2" d="M475.6,291.7H337.9c-0.9,0-1.6-0.7-1.6-1.6l0,0c0-0.9,0.7-1.6,1.6-1.6h137.7c0.9,0,1.6,0.7,1.6,1.6l0,0
						C477.2,291,476.5,291.7,475.6,291.7z"/>
				</g>
				<g>
					<path class="st2" d="M475.6,298.9H337.9c-0.9,0-1.6-0.7-1.6-1.6l0,0c0-0.9,0.7-1.6,1.6-1.6h137.7c0.9,0,1.6,0.7,1.6,1.6l0,0
						C477.2,298.2,476.5,298.9,475.6,298.9z"/>
				</g>
				<g>
					<path class="st2" d="M475.6,306.1H337.9c-0.9,0-1.6-0.7-1.6-1.6l0,0c0-0.9,0.7-1.6,1.6-1.6h137.7c0.9,0,1.6,0.7,1.6,1.6l0,0
						C477.2,305.3,476.5,306.1,475.6,306.1z"/>
				</g>
			</g>
		</g>
		<g>
			<g>
				<path class="st2" d="M318.1,383.4h-43.3v-43.3h43.3V383.4z M275.8,382.4h41.3v-41.3h-41.3V382.4z"/>
			</g>
			<g>
				<g>
					<g>
						<polygon class="st2" points="297.9,373.8 283.6,362.6 286,359.5 297.6,368.5 322.6,344.4 325.4,347.3 						"/>
					</g>
				</g>
			</g>
			<g>
				<g>
					<path class="st2" d="M475.6,352.6H337.9c-0.9,0-1.6-0.7-1.6-1.6l0,0c0-0.9,0.7-1.6,1.6-1.6h137.7c0.9,0,1.6,0.7,1.6,1.6l0,0
						C477.2,351.9,476.5,352.6,475.6,352.6z"/>
				</g>
				<g>
					<path class="st2" d="M475.6,359.8H337.9c-0.9,0-1.6-0.7-1.6-1.6l0,0c0-0.9,0.7-1.6,1.6-1.6h137.7c0.9,0,1.6,0.7,1.6,1.6l0,0
						C477.2,359,476.5,359.8,475.6,359.8z"/>
				</g>
				<g>
					<path class="st2" d="M475.6,366.9H337.9c-0.9,0-1.6-0.7-1.6-1.6l0,0c0-0.9,0.7-1.6,1.6-1.6h137.7c0.9,0,1.6,0.7,1.6,1.6l0,0
						C477.2,366.2,476.5,366.9,475.6,366.9z"/>
				</g>
				<g>
					<path class="st2" d="M475.6,374.1H337.9c-0.9,0-1.6-0.7-1.6-1.6l0,0c0-0.9,0.7-1.6,1.6-1.6h137.7c0.9,0,1.6,0.7,1.6,1.6l0,0
						C477.2,373.4,476.5,374.1,475.6,374.1z"/>
				</g>
			</g>
		</g>
	</g>
	<g>
		<g>
			<path class="st6" d="M482.6,304.3c2.2-1.6,4.3-3.4,5.3-4c0.4-0.2,1.6-0.5,2-0.6c1-0.3,2.7-0.6,3.4-1.4l3.1-3.4
				c1.5-1.7,3.4-2.2,5-0.8l0,0c1.8,1.6,1.3,3.8-0.5,5.4l-2.1,2.4c-1.4,1.3-2.1,3.1-2.9,4.8c-1.6,3.5-5.2,6.2-8.3,8.1
				c-2,1.2-4.9,0.3-8.8-1c-1.9-0.7-4.7-2.2-2.3-3.1c2-0.7,8,0.9,10.6-4.6c0.1-0.3,0.4-1,0.1-1.2c-0.8-0.8-2.6,1-3.8,1.5
				c-1.7,0.8-3,0.5-3.4-0.1C479.6,305.7,481,305.5,482.6,304.3z"/>
			<path class="st3" d="M566.7,183.4c0,0-4.9,59.3-22.7,79.3c-10.7,12.1-36.8,32.7-42.9,37.5c-0.8,0.6-1.8,0.6-2.7,0.1
				c-0.5-0.4-1.1-0.8-1.6-1.2c-0.5-0.5-1.1-1.1-1.6-1.7c-0.9-1-0.8-2.6,0.1-3.5c6.8-7.4,33.4-36.6,36.6-44.3
				c3.7-8.8,10.1-60.8,16-68.4C553.9,173.6,565.1,172,566.7,183.4z"/>
			<polygon class="st6" points="544.3,281.4 559.5,175.2 600.2,169.6 621.4,280.6 			"/>
			<path class="st6" d="M575.9,446l0,12c0,2.4,0.3,4.9,1,7.2l1,3.7c0.8,3-1.4,6-4.6,6c-8.2,0-22.1,0-25.7,0c-0.6,0-1.2-0.4-1.2-1
				c-0.3-3.5,9.8-5.8,17.4-8.8c5.8-2.2,5.5-12.7,4.8-18.7c-0.3-2.3,1.7-4.3,4-4.1l0,0C574.4,442.5,575.9,444,575.9,446z"/>
			<path class="st6" d="M631.9,442.6l4.1,13.7c0.2,0.6,0.5,1.2,0.8,1.7l2.9,4.3c1.9,2.8,0.5,6.5-2.7,7.5c0,0-5.9,2.1-12,4.1
				c-6.2,2-14,0.3-14-1.3c0-3.7,3.4-0.8,9.1-4.6c1.9-1.3,3.9-2.6,5.6-4c4.9-3.8,0.6-13.6-2.4-19.1c-1.1-2,0.1-4.4,2.3-4.9l1.4-0.3
				C629.2,439.3,631.3,440.6,631.9,442.6z"/>
			<path class="st2" d="M589.8,282.4l-45.2-3.8c0,0-4.5,32.9,6.9,92.4c5.4,27.9,16.5,81.3,16.5,81.3c2.8,1.2,5.6,1.5,8.4,0.8
				c0,0,0.8-23.5,1.4-48.9c0.5-24.3,0.6-50.3,2.2-58.8C583.1,328.1,589.8,282.4,589.8,282.4z"/>
			<path class="st2" d="M580.4,283c-4.7,25-15.1,62.5,5,97.7c20.1,35.2,41.2,71.7,41.2,71.7c2.7,0.1,5.2-0.9,7.5-2.6
				c0,0-3.5-15.9-8.6-34.6c-5.8-21.3-13.2-46.3-11.1-59.4c3.9-24.5,8.5-57.1,7.1-72.9C620.1,267,582.9,269.8,580.4,283z"/>
			<path class="st4" d="M542.8,278.7l16.7-103.5l40.8-5.6l21.9,109.3c0.4,2-0.9,4-3,4.4c-7.6,1.4-25.9,4.4-46.4,4.4
				c-15.3,0-23.9-3-27.8-4.9C543.4,282.1,542.5,280.4,542.8,278.7z"/>
			<path class="st6" d="M623.5,318.8c0.6-2.7,1-5.4,1.3-6.5c0.2-0.4,0.9-1.5,1.1-1.8c0.6-0.9,1.6-2.3,1.6-3.3l0.1-4.6
				c0-2.2,1.1-3.9,3.3-3.9l0,0c2.4,0,3.5,2,3.2,4.4v3.2c-0.2,1.9,0.4,3.7,1,5.5c1.1,3.7,0.2,8.1-0.9,11.6c-0.7,2.2-3.5,3.5-7.2,5.1
				c-1.8,0.8-5,1.4-3.8-0.8c1-1.9,6.5-4.6,4.9-10.5c-0.1-0.3-0.3-1-0.7-1c-1.1,0-1.3,2.4-1.8,3.6c-0.7,1.7-1.9,2.3-2.6,2.2
				C622.1,321.8,623,320.7,623.5,318.8z"/>
			<path class="st3" d="M587.5,176c0,7.5,1.4,14.8,3.9,21.9c5,13.7,12.5,39.6,8,62.5c-6.4,32.9-14.6,46.2-4,53.8
				c10.7,7.7,31.1-5.1,31.7-9.4c0.6-4.3-4-56.6-9.2-79.3c-5.2-22.7-19.7-55.3-19.7-55.3l-6.1,0.7C589.5,171.1,587.5,173.4,587.5,176
				L587.5,176z"/>
			<path class="st3" d="M606.7,172.4c0,0,35.5,47.8,35.5,74.5c0,16.1-6,48.9-7.4,56.5c-0.2,1-1,1.7-1.9,1.8c-0.6,0.1-1.3,0.1-2,0.1
				c-0.7,0-1.5-0.1-2.4-0.2c-1.3-0.2-2.3-1.4-2.3-2.7c0.2-10,0.8-49.5-1.8-57.4c-3-9.1-32.7-52.3-33.2-61.8
				C590.5,173.6,597.9,164.9,606.7,172.4z"/>
			<path class="st3" d="M570.5,173.7c0,0-7.1,15.3-4.6,37.2c2.5,22,8.2,88.8-11.8,98.9c-6.3,3.2-20.8-11-20.8-16.2
				s4.8-22.8,9.4-38.8s15.6-79.5,15.6-79.5L570.5,173.7z"/>
			<g>
				<path class="st6" d="M576.2,126.3c9.1,0,12.5,6.5,12.7,18.5c0.1,4.5-2,8.9-3.6,11.8c-1.2,2.1-1.5,4.6-0.8,6.9l2,6.8
					c1.4,6.3-1.6,9.7-6,11c-2.2,0.6-4.8,0.1-6.7-1.1c-2.3-1.5-2.5-4.6-2-7.3l0.5-1.9c0.7-2.6-0.8-5.4-3.4-6c-7-1.5-8-8.8-9.9-20.2
					C556.9,132.9,567.1,126.3,576.2,126.3z"/>
				<path class="st2" d="M555,121l5.2,1.6c1.9,0.6,4,0.6,5.9,0l10.4-3c6.3,0,16.7,3.6,15.4,12.7l-1.2,6.4c-0.5,2.6-2.6,4.5-5.2,4.7
					l0,0c-0.2,0.9-1,1.5-2,1.5c-1.1,0-2-0.9-2-2l0,0c0-2.9-2-5.4-4.9-6c-3.5-0.8-7.2-1-11.1,0.1c-7.2,2-14.9-2.5-15.6-10
					c0-0.5-0.1-1-0.1-1.4C550,122.5,552.4,120.3,555,121z"/>
				<path class="st6" d="M583.9,145c0,2.8,1,5,3.7,5s4.4-3.8,4.4-6.6s-1.7-3.5-4.4-3.5C584.9,140,583.9,142.2,583.9,145z"/>
			</g>
		</g>
		<path class="st7" d="M585,157.2c0,0-6.8,9.3-15.3,8.1c0,0,1.8,0.8,2.2,2.2C571.9,167.5,579.9,166.9,585,157.2z"/>
	</g>
	<path class="st4" d="M603,26.9c0,6.5-4.3,11.8-9.6,11.8H480c-5.3,0-9.6-5.3-9.6-11.8l0,0c0-6.5,4.3-11.8,9.6-11.8h113.5
		C598.7,15.2,603,20.5,603,26.9L603,26.9z"/>
	<path class="st4" d="M196.8,89.9c0,6.5-5.3,11.8-11.8,11.8H45.6c-6.5,0-11.8-5.3-11.8-11.8l0,0c0-6.5,5.3-11.8,11.8-11.8h139.4
		C191.6,78.1,196.8,83.4,196.8,89.9L196.8,89.9z"/>
	<path class="st4" d="M253.8,26.9c0,6.5-4.4,11.8-9.7,11.8H128.7c-5.4,0-9.7-5.3-9.7-11.8l0,0c0-6.5,4.4-11.8,9.7-11.8h115.4
		C249.5,15.1,253.8,20.4,253.8,26.9L253.8,26.9z"/>
	<path class="st4" d="M727.2,77.9c0,6.5-5.3,11.8-11.8,11.8H576c-6.5,0-11.8-5.3-11.8-11.8l0,0c0-6.5,5.3-11.8,11.8-11.8h139.4
		C722,66.1,727.2,71.4,727.2,77.9L727.2,77.9z"/>
</g>
<path class="st2" d="M577.1,466.1c0,0-6.3,2.8-12.2-1.5c0,0-14.5,2.3-18.7,6.6c-4.2,4.3-1.2,6.4,4.1,6.3c5.2-0.1,25.5-0.3,25.5-0.3
	S580.9,474,577.1,466.1z"/>
<path class="st2" d="M637.8,459c0,0-3.1,4-10,1.7c0,0-15.3,7-18,12.3c-2.7,5.3,0.8,6.5,5.8,4.8s24.2-7.8,24.2-7.8
	S643.8,465.5,637.8,459z"/>
</svg>
